<svg fill="none" height="30" viewBox="0 0 30 30" width="30" xmlns="http://www.w3.org/2000/svg" xmlns:xlink="http://www.w3.org/1999/xlink"><clipPath id="a"><path d="m0 0h30v30h-30z"/></clipPath><g clip-path="url(#a)" fill="#5a57c6"><path d="m16 26c1.0609 0 2.0783-.4214 2.8284-1.1716.7502-.7501 1.1716-1.7675 1.1716-2.8284h-2c0 .5304-.2107 1.0391-.5858 1.4142s-.8838.5858-1.4142.5858h-3v2z"/><path clip-rule="evenodd" d="m15 31.0068c-.3628-.0002-.7253-.0195-1.086-.058l.086.058h-12v-18h.038c.25689-3.35255 1.80274-6.47514 4.31296-8.71215s5.78954-3.414422 9.14944-3.28501c3.3598.12942 6.5389 1.55559 8.8696 3.97906s3.6318 5.6557 3.63 9.0181v17zm2.948-20.2 2.6.172c1.08 1.1651 1.9157 2.5347 2.458 4.028h-14.592c1.13178-1.4181 2.5902-2.5408 4.2506-3.2723 1.6604-.7314 3.4732-1.0497 5.2834-.9277zm.222 6.2h5.42l.08.392c.1008.5299.1477 1.0686.14 1.608h-2.81c-.6207.0003-1.2261-.1919-1.733-.5501-.5068-.3582-.8901-.8648-1.097-1.4499zm2.83 4h2.572c-.2419 1.0704-.5931 2.1132-1.048 3.112-.6463 1.456-1.7012 2.6931-3.0367 3.5615-1.3355.8683-2.8943 1.3305-4.4873 1.3305s-3.1518-.4622-4.4873-1.3305c-1.3355-.8684-2.39038-2.1055-3.0367-3.5615-.45752-.9905-.78297-2.0368-.968-3.112h2.492c1.1527.0002 2.27-.3978 3.1629-1.1267s1.5066-1.744 1.7371-2.8733h2.2c.2305 1.1293.8442 2.1444 1.7371 2.8733s2.0102 1.1269 3.1629 1.1267zm-12-2h-2.53c.064-.46.18-.906.36-1.338.096-.224.198-.446.306-.662h4.694c-.2069.5851-.5902 1.0917-1.097 1.4499-.5069.3582-1.11235.5504-1.733.5501z" fill-rule="evenodd"/></g></svg>