<svg fill="none" height="40" viewBox="0 0 40 40" width="40" xmlns="http://www.w3.org/2000/svg"><path d="m9.8792 26.2335v-1h-1-2.18599c-.92998 0-1.69321-.7607-1.69321-1.7032v-14.82709c0-.94248.76323-1.70321 1.69321-1.70321h17.61359c.93 0 1.6932.76073 1.6932 1.70321v14.82259c0 .9425-.7632 1.7032-1.6932 1.7032h-8.4702-.3257l-.2633.1919-4.8209 3.5142-.0023.0017c-.0549.0403-.1242.0632-.1986.0632-.0482 0-.1025-.012-.1536-.0382l-.0048-.0025c-.11416-.0578-.1882-.1752-.1882-.3109z" fill="#edecff" stroke="#5a57c6" stroke-width="2"/><path d="m33.3666 10h-7.0531v13.9352c0 1.0051-.7857 1.8192-1.7556 1.8192h-7.5579v1.8056c0 1.5054 1.1806 2.7288 2.6334 2.7288h3.9457l4.6963 3.4565c.2282.1683.4959.2547.7636.2547.2283 0 .4565-.0591.6628-.1865.4125-.2456.6539-.714.6539-1.2052v-2.1239h3.0109c1.4528 0 2.6334-1.2235 2.6334-2.7289v-15.0267c0-1.5054-1.1806-2.7288-2.6334-2.7288z" fill="#5a57c6"/></svg>