<svg fill="none" height="24" viewBox="0 0 24 24" width="24" xmlns="http://www.w3.org/2000/svg" xmlns:xlink="http://www.w3.org/1999/xlink"><clipPath id="a"><path d="m0 0h24v24h-24z"/></clipPath><g clip-path="url(#a)"><path clip-rule="evenodd" d="m5.00035 10.416c.01806-1.51609.56554-2.97815 1.5477-4.1332s2.3372-1.93043 3.83065-2.19195c1.4934-.26153 3.0313.00725 4.3475.75982 1.3163.75258 2.328 1.94159 2.8601 3.36131 1.3993.38589 2.6114 1.26582 3.4117 2.47682s1.1346 2.6709.9411 4.1095c-.1936 1.4386-.9019 2.7583-1.9938 3.7147s-2.4934 1.4846-3.945 1.487h-8.99995c-1.14929.0007-2.26375-.3945-3.15581-1.1191s-1.50725-1.7345-1.74202-2.8595c-.23478-1.1251-.07481-2.2967.45298-3.3176s1.39118-1.8289 2.44485-2.2878z" fill="#fff" fill-rule="evenodd"/></g></svg>