<svg fill="none" height="24" viewBox="0 0 24 24" width="24" xmlns="http://www.w3.org/2000/svg"><path d="m12 0c-6.61649 0-12 5.24496-12 11.6912 0 3.7698 1.84959 7.119 4.70192 9.2584.43736.4133.96155.7601 1.56491 1.0082 1.70454.9071 3.65801 1.4245 5.73317 1.4245 6.6165 0 12-5.2449 12-11.6911 0-6.44624-5.3835-11.6912-12-11.6912zm0 1.79864c5.6188 0 10.1538 4.41838 10.1538 9.89256 0 2.8388-1.2259 5.3872-3.1838 7.1892 1.0833-1.5397 1.7199-3.4001 1.7199-5.4029 0-5.28197-4.4132-9.58338-9.8347-9.58338-3.6687 0-6.87118 1.97275-8.56193 4.88303 1.27323-4.04613 5.12973-6.97851 9.70673-6.97851zm-1.1448 3.89412c4.4237 0 7.9886 3.47482 7.9886 7.78474 0 2.3338-1.0507 4.4171-2.7116 5.8421.7854-1.1715 1.2458-2.5673 1.2458-4.0663 0-4.1128-3.4408-7.46681-7.66226-7.46681-2.78127 0-5.21737 1.46107-6.56069 3.63061.92476-3.30331 4.01012-5.72434 7.70015-5.72434zm-1.13946 3.89237c3.22366 0 5.81616 2.52747 5.81616 5.66817 0 1.7523-.8073 3.3115-2.0806 4.3491.413-.7967.6184-1.6812.6184-2.5628 0-1.3145-.4454-2.6425-1.3774-3.664-.9319-1.0214-2.3669-1.695-4.12319-1.695-1.75631 0-3.18945.6736-4.12139 1.695-.12858.1409-.24501.2892-.35517.4409.65041-2.439 2.91037-4.23137 5.62319-4.23137zm-1.14663 3.89417c1.29477 0 2.15039.4419 2.74399 1.0925s.9105 1.553.9105 2.4678c0 .9149-.3169 1.8173-.9105 2.4679s-1.44922 1.0908-2.74399 1.0908c-.49327 0-.90478-.0799-1.28005-.195-.57351-.2554-1.09447-.5978-1.54868-1.0117-.53244-.6404-.82391-1.4871-.82391-2.352 0-.9148.31686-1.8172.91045-2.4678.5936-.6506 1.44742-1.0925 2.74219-1.0925z" fill="#000"/><path d="m12.4232 17.0871c0 2.195-1.8302 3.9966-4.11543 3.9966-2.28524 0-4.11539-1.8016-4.11539-3.9966 0-2.1951 1.83015-3.9966 4.11539-3.9966 2.28523 0 4.11543 1.8015 4.11543 3.9966z" fill="#eee" stroke="#000"/></svg>