<svg fill="none" height="40" viewBox="0 0 40 40" width="40" xmlns="http://www.w3.org/2000/svg"><path d="m36.2449 19.9019h-.0001v.0092c0 9.0477-7.3745 16.4222-16.4222 16.4222s-16.42221-7.3745-16.42221-16.4222 7.37451-16.42221 16.42221-16.42221c9.1418 0 16.5059 7.37761 16.4223 16.41301z" fill="#5a57c6" stroke="#5a57c6" stroke-width="2"/><path clip-rule="evenodd" d="m27.7336 12.8889-3.5556 10.8444c-.0889.2667-.3555.5334-.6222.6223l-10.8444 3.5555c-.2667.0889-.6223.0889-.7112-.0889-.1777-.1777-.2666-.4444-.0888-.7111l3.5555-10.8444c.0889-.2667.3556-.5334.6222-.6222l10.8445-3.5556c.2666-.0889.6222-.0889.7111.0889.1778.1778.2667.4444.0889.7111zm-10.5783 7.0222c0-1.5112 1.2444-2.6667 2.6666-2.6667 1.5112 0 2.6667 1.2444 2.6667 2.6667 0 1.5111-1.1555 2.6666-2.6667 2.6666-1.5111 0-2.6666-1.2444-2.6666-2.6666z" fill="#edecff" fill-rule="evenodd"/></svg>