<svg fill="none" height="24" viewBox="0 0 24 24" width="24" xmlns="http://www.w3.org/2000/svg" xmlns:xlink="http://www.w3.org/1999/xlink"><clipPath id="a"><path d="m0 0h24v24h-24z"/></clipPath><g clip-path="url(#a)"><path d="m.0683969 3.25239c0-1.76322 1.4350931-3.1983129 3.2019231-3.1983129 1.59014 0 2.90986 1.1610529 3.15865 2.6826929 1.72356-.40745 3.61303.0649 4.96153 1.40986l.1803.18389-2.35817 2.36178-.1839-.1839c-.76803-.76442-2.00841-.76442-2.77644.00361s-.76803 2.01202-.00361 2.77644l.46154.46154 2.36178 2.35821 2.4988 2.4988-2.35817 2.3617-2.50241-2.4988-2.81971-2.8197c-1.42788-1.4279-1.87139-3.46511-1.33053-5.27521-1.42428-.32091-2.4915831-1.59375-2.4915831-3.1226zm6.9230731 6.21635 2.36178 2.36176 2.49885-2.49517 2.3617-2.36178.4616-.45793c.768-.77164 2.0084-.76803 2.7692-.00361.768.76442.768 2.00841 0 2.77284l-.1803.18389 2.3582 2.36176.1839-.1839c1.4134-1.4134 1.8606-3.42546 1.3449-5.21752 1.5685-.20553 2.7801-1.55048 2.7801-3.17308 0-1.76683-1.4315-3.2019229-3.1983-3.2019229-1.619 0-2.9568 1.2007229-3.1731 2.7584129-1.7993-.52644-3.8257-.07933-5.2464 1.33774l-2.82333 2.82332zm14.21753 8.10936c.4255-1.738-.0432-3.649-1.4026-5.0048l-.4652-.4651-2.3581-2.36182-2.4916-2.49158-2.3618 2.35817 2.4916 2.49523 2.8233 2.8233c.768.7716.768 2.012.0036 2.7728-.7644.768-2.0084.768-2.7764 0l-.1803-.1803-2.3582 2.3618.1803.1803c1.4351 1.4387 3.494 1.875 5.3113 1.3197.2921 1.4603 1.5865 2.5601 3.1334 2.5601 1.7668 0 3.2019-1.4315 3.2019-3.1983 0-1.6154-1.1971-2.9531-2.7512-3.1695zm-4.5036-2.8269-2.3618-2.3618-2.4915 2.4952-2.82337 2.8233c-.76442.7644-2.00841.7644-2.78005-.0036-.76442-.768-.76442-2.0084 0-2.7764l.1839-.1803-2.36178-2.3582-.18029.1767c-1.3738 1.3738-1.83533 3.3101-1.38822 5.0625-1.41346.3353-2.4627392 1.601-2.4627392 3.1154 0 1.7668 1.4314892 3.2019 3.2019192 3.2019 1.51803-.0036 2.79087-1.0601 3.11899-2.4844 1.74159.4327 3.66704-.0288 5.03004-1.3918l.4616-.4651 2.3581-2.3618z" fill="#000"/></g></svg>