<svg fill="none" height="24" viewBox="0 0 24 24" width="24" xmlns="http://www.w3.org/2000/svg" xmlns:xlink="http://www.w3.org/1999/xlink"><clipPath id="a"><path d="m0 0h24v24h-24z"/></clipPath><g clip-path="url(#a)"><path d="m5.93553 2.81745.08654.52929.52193-.12338c1.48731-.3516 3.11056.02018 4.3173 1.1101l-1.65742 1.65995c-.96836-.79471-2.39917-.74093-3.30514.16505-.9627.96269-.96389 2.52326-.00361 3.48355l.46154.46149.00027.0003 2.36151 2.3579.00027.0003 2.14528 2.1452-1.6519 1.6544-2.14832-2.1452-.00026-.0003-2.81945-2.8194c-1.29278-1.2928-1.69541-3.13738-1.20502-4.77856l.15335-.51319-.52251-.11773c-1.20124-.27066-2.101493-1.3449-2.101493-2.63483 0-1.48671 1.210873-2.698313 2.701923-2.698313 1.34085 0 2.45525.979263 2.66521 2.263373zm14.73527 3.74988c.4466 1.55213.096 3.28429-1.0522 4.55167l-1.6573-1.65981c.7967-.9658.7423-2.39872-.1631-3.30073-.956-.95958-2.5127-.96328-3.476.00325-.0004.00039-.0008.00079-.0012.00118l-.4593.45572-.0014.00139-2.3615 2.36152-.0003.00025-2.14499 2.14193-1.65467-1.6547 2.14473-2.14164.00026-.00026 2.82287-2.82287c.0001-.00012.0002-.00024.0004-.00036 1.2865-1.28297 3.1217-1.68864 4.7525-1.2115l.5559.16267.0797-.57377c.1825-1.31397 1.3119-2.327193 2.6779-2.327193 1.4899 0 2.6983 1.210503 2.6983 2.701923 0 1.36859-1.0225 2.50401-2.345 2.67732l-.5763.0755zm-8.4649 8.67057 2.138-2.1411 1.6542 1.6541-2.1412 2.1381-.0005.0005-2.3582 2.3618-.0011.0011-.4601.4637c-.0002.0002-.0004.0004-.0005.0006-1.23335 1.2329-2.9764 1.6519-4.55548 1.2596l-.49361-.1227-.11418.4957c-.27688 1.2018-1.35132 2.0932-2.63217 2.0966-1.49373-.0002-2.701509-1.211-2.701509-2.7019 0-1.277.884459-2.3457 2.078159-2.6289l.49478-.1174-.12572-.4927c-.38618-1.5136-.02427-3.1765 1.08691-4.4061l1.65839 1.6558c-.79289.9682-.73882 2.397.16223 3.3023l.00166.0017c.96565.9611 2.52559.9635 3.48633.0028l2.82331-2.8233zm5.2729 5.6697c-1.5753.4814-3.3474.1405-4.6345-1.0262l1.656-1.6585c.9681.7941 2.3995.7403 3.3015-.165.9614-.9579.9576-2.5142-.0028-3.4791l-.0008-.0009-2.8231-2.823-.0003-.0003-2.138-2.1411 1.6544-1.65186 2.138 2.13806.0003.0002 2.3579 2.3615.0003.0003.4651.4652.0005.0004c1.2306 1.2274 1.6556 2.9571 1.2701 4.5319l-.1317.5378.5484.0763c1.3097.1824 2.3201 1.3112 2.3201 2.6743 0 1.4899-1.2105 2.6983-2.7019 2.6983-1.3051 0-2.3971-.9281-2.6431-2.1581l-.1083-.5415z" fill="#4e47db" stroke="#4e47db"/></g></svg>