<svg fill="none" height="41" viewBox="0 0 52 41" width="52" xmlns="http://www.w3.org/2000/svg"><g stroke="#000" stroke-linecap="round" stroke-linejoin="round" stroke-width="2"><path d="m38.5 31.4996c4.1421 0 7.5-2.2759 7.5-5.0833 0-2.8075-3.3579-5.0834-7.5-5.0834s-7.5 2.2759-7.5 5.0834c0 2.8074 3.3579 5.0833 7.5 5.0833z"/><path d="m7.31508 35.7341c-2.8325-1.9622-4.7425-4.8902-5.7275-8.784-.994999-3.9142-.724999-7.4649.8-10.6496 1.525-3.1898 3.975-5.9475 7.345-8.27061 3.37002-2.32308 7.32502-4.13021 11.87252-5.41883 4.525-1.281 8.79-1.7995 12.8-1.55042 4.02.25417 7.4475 1.36488 10.28 3.32959 2.8325 1.9647 4.7425 4.89016 5.7275 8.78397.995 3.9167.725 7.4674-.8 10.6547-1.525 3.1847-3.975 5.9399-7.345 8.2655s-7.325 4.1327-11.8725 5.4214c-4.525 1.2784-8.79 1.7969-12.8 1.5504-4.02-.2593-7.4475-1.3674-10.28002-3.3296z"/><path d="m23.495 22.6241c-1.325-.8032-3.075-1.2912-4.995-1.2912-4.1425 0-7.5 2.2748-7.5 5.0834 0 2.8085 3.3575 5.0833 7.5 5.0833 1.9175 0 3.6675-.488 4.995-1.2912"/></g></svg>