<svg width="43" height="48" viewBox="0 0 43 48" fill="none" xmlns="http://www.w3.org/2000/svg">
<path d="M17.3091 13.5788L16.0591 11.0788M24.8091 28.5788L26.0591 31.0788M13.5591 24.8288L11.0591 26.0788M18.5591 28.5788L17.3091 31.0788M23.5591 13.5788L24.8091 11.0788M31.0591 24.8288L28.5591 23.5788M13.5591 18.5788L11.0591 17.3288M41.0591 21.0538C41.0341 34.8538 29.8591 46.0538 16.0591 46.0788V40.4288L16.0341 40.4038C5.33412 37.6288 -1.11588 26.7288 1.63412 16.0288C2.28732 13.4843 3.43533 11.0935 5.01258 8.99274C6.58982 6.892 8.56542 5.12252 10.8266 3.78534C13.0877 2.44816 15.5901 1.56946 18.1908 1.19943C20.7916 0.829404 23.4398 0.975289 25.9841 1.62876C34.8091 3.90376 41.0591 11.9538 41.0591 21.0788V21.0538Z" stroke="black" stroke-width="2" stroke-linecap="round" stroke-linejoin="round"/>
</svg>
