<svg fill="none" height="48" viewBox="0 0 43 48" width="43" xmlns="http://www.w3.org/2000/svg"><path d="m17.3091 13.5788-1.25-2.5m8.75 17.5 1.25 2.5m-12.5-6.25-2.5 1.25m7.5 2.5-1.25 2.5m6.25-17.5 1.25-2.5m6.25 13.75-2.5-1.25m-15-5-2.5-1.25m30 3.725c-.025 13.8-11.2 25-25 25.025v-5.65l-.025-.025c-10.69998-2.775-17.14998-13.675-14.39998-24.375.6532-2.5445 1.80121-4.9353 3.37846-7.03606 1.57724-2.10074 3.55284-3.87022 5.81402-5.2074 2.2611-1.33718 4.7635-2.21588 7.3642-2.58591 2.6008-.370026 5.249-.224141 7.7933.42933 8.825 2.275 15.075 10.32504 15.075 19.45004z" stroke="#000" stroke-linecap="round" stroke-linejoin="round" stroke-width="2"/></svg>