<svg fill="none" height="54" viewBox="0 0 54 54" width="54" xmlns="http://www.w3.org/2000/svg"><path d="m40.9138 14.5337c-.0111-.0212-.0296-.0378-.052-.0469-2.5934-1.1713-5.3302-2.0065-8.1419-2.4848-.0256-.0046-.052-.0013-.0754.0097-.0235.0109-.0429.0289-.0554.0513-.3727.6658-.711 1.3497-1.0136 2.0491-3.0309-.4529-6.1138-.4529-9.1447 0-.3047-.7012-.6484-1.3852-1.0296-2.0491-.0131-.0219-.0326-.0395-.0559-.0503-.0233-.0109-.0495-.0146-.075-.0107-2.812.4773-5.549 1.3126-8.1421 2.4849-.0222.0093-.0409.0251-.0536.0453-5.18563 7.6231-6.60618 15.0587-5.9093 22.4023.00196.018.00758.0355.01652.0513s.02102.0297.03552.0408c3.01956 2.2008 6.39696 3.8807 9.98816 4.968.0253.0075.0523.0072.0774-.0009.025-.0081.047-.0236.0629-.0443.7713-1.0331 1.4547-2.127 2.0433-3.2707.0081-.0157.0128-.0329.0136-.0505s-.0021-.0351-.0087-.0515c-.0065-.0164-.0165-.0312-.0293-.0435s-.0281-.0218-.0449-.0278c-1.0777-.4059-2.121-.8953-3.1203-1.4634-.0181-.0105-.0333-.0252-.0443-.0429s-.0174-.0378-.0187-.0585c-.0012-.0206.0027-.0413.0115-.0601.0088-.0189.0222-.0353.039-.0478.2102-.1546.4168-.314.6196-.4779.0178-.0145.0393-.0237.0622-.0267.0228-.0031.046.0002.0671.0095 6.5462 2.9409 13.6334 2.9409 20.1021 0 .0211-.0099.0446-.0136.0677-.0109.0232.0028.0451.012.0632.0265.203.1649.4101.3247.6212.4795.0169.0124.0303.0287.0393.0474.0089.0188.013.0394.0119.0601s-.0073.0408-.0182.0586c-.0108.0177-.026.0326-.044.0432-.997.5729-2.0413 1.0619-3.1218 1.4618-.0168.0063-.032.016-.0447.0285s-.0226.0275-.0291.044c-.0064.0165-.0092.0341-.0082.0518.001.0176.0058.0349.014.0506.5984 1.1373 1.2809 2.2299 2.0417 3.2689.0155.0213.0374.0373.0625.0457.0252.0084.0525.0088.0779.0011 3.5976-1.0836 6.9809-2.7636 10.0042-4.9678.0148-.0106.027-.0241.036-.0397s.0145-.033.0161-.0508c.8343-8.49-1.3968-15.8647-5.9139-22.4024zm-20.547 17.9293c-1.9709 0-3.5949-1.7803-3.5949-3.9669 0-2.1865 1.5925-3.967 3.5949-3.967 2.018 0 3.6262 1.796 3.5947 3.9669 0 2.1867-1.5925 3.967-3.5947 3.967zm13.2912 0c-1.9708 0-3.5948-1.7803-3.5948-3.9669 0-2.1865 1.5925-3.967 3.5948-3.967 2.0181 0 3.6263 1.796 3.5948 3.9669 0 2.1867-1.5767 3.967-3.5948 3.967z" fill="#000"/></svg>