<svg fill="none" height="24" viewBox="0 0 24 24" width="24" xmlns="http://www.w3.org/2000/svg" xmlns:xlink="http://www.w3.org/1999/xlink"><filter id="a" color-interpolation-filters="sRGB" filterUnits="userSpaceOnUse" height="26" width="26" x="-1" y="0"><feFlood flood-opacity="0" result="BackgroundImageFix"/><feColorMatrix in="SourceAlpha" result="hardAlpha" type="matrix" values="0 0 0 0 0 0 0 0 0 0 0 0 0 0 0 0 0 0 127 0"/><feOffset dy="4"/><feGaussianBlur stdDeviation="2"/><feComposite in2="hardAlpha" operator="out"/><feColorMatrix type="matrix" values="0 0 0 0 0 0 0 0 0 0 0 0 0 0 0 0 0 0 0.25 0"/><feBlend in2="BackgroundImageFix" mode="normal" result="effect1_dropShadow_76_477"/><feBlend in="SourceGraphic" in2="effect1_dropShadow_76_477" mode="normal" result="shape"/></filter><g fill="#000" filter="url(#a)"><path d="m13.1925 4.74637h4.8588c.1612 0 .3157-.064.4296-.17793s.1779-.26845.1779-.42957-.064-.31564-.1779-.42957c-.1139-.11392-.2684-.17793-.4296-.17793h-4.8588c-.1612 0-.3157.06401-.4296.17793-.1139.11393-.1779.26845-.1779.42957s.064.31564.1779.42957.2684.17793.4296.17793z"/><path d="m18.0514 5.39887h-6.2876c-.1125-.36393-.2108-.73208-.2948-1.10362-.3105-1.287-.4658-1.93388-1.0868-1.93388h-4.48082c-.97988 0-1.77638.93375-1.77638 2.08238v9.11135c0 1.1486.7965 2.0824 1.77638 2.0824h12.15002c.9798 0 1.7775-.9338 1.7775-2.0835v-6.075c0-1.14638-.7977-2.08013-1.7775-2.08013zm.6525 8.15623c0 .5186-.2993.9585-.6525.9585h-12.15002c-.35325-.0011-.65138-.4399-.65138-.9585v-9.11135c0-.51863.29813-.95738.65138-.95738h4.18842c.09.26438.2036.73463.2846 1.07213.315 1.30837.4736 1.96537 1.1013 1.96537h6.5746c.3532 0 .6525.43763.6525.95625v6.07498z"/></g></svg>