<svg fill="none" height="24" viewBox="0 0 24 24" width="24" xmlns="http://www.w3.org/2000/svg"><g fill="#fff"><path d="m6.39961 9.6c-1.27304 0-2.49394-.50571-3.39411-1.40589-.90018-.90017-1.40589-2.12107-1.40589-3.39411s.50571-2.49394 1.40589-3.39411c.90017-.900177 2.12107-1.40589 3.39411-1.40589h11.19999c1.2731 0 2.4939.505713 3.3941 1.40589.9002.90017 1.4059 2.12107 1.4059 3.39411s-.5057 2.49394-1.4059 3.39411c-.9002.90018-2.121 1.40589-3.3941 1.40589h-3.2v-4c0-1.06087-.4214-2.07828-1.1716-2.82843-.7501-.75014-1.7675-1.17157-2.8284-1.17157-1.06086 0-2.07827.42143-2.82842 1.17157-.75014.75015-1.17157 1.76756-1.17157 2.82843z"/><path d="m10.3998 3.19995c-.63651 0-1.24696.25286-1.69705.70295-.45009.45008-.70295 1.06053-.70295 1.69705v7.28005c-.90349.1844-1.71551.6753-2.29864 1.3896-.58313.7144-.90154 1.6082-.90136 2.5304 0 1.9095.75857 3.7409 2.10884 5.0911 1.35026 1.3503 3.18156 2.1089 5.09116 2.1089h.8c2.1217 0 4.1566-.8429 5.6569-2.3432s2.3431-3.5351 2.3431-5.6568v-1.3648c0-.9111-.3619-1.7849-1.0061-2.4291-.6443-.6442-1.518-1.0061-2.4291-1.0061h-4.5648v-5.60005c0-.63652-.2529-1.24697-.7029-1.69705-.4501-.45009-1.0606-.70295-1.6971-.70295z"/></g></svg>