<svg fill="none" height="30" viewBox="0 0 30 30" width="30" xmlns="http://www.w3.org/2000/svg"><path clip-rule="evenodd" d="m15 0c-3.9782 0-7.79356 1.58035-10.6066 4.3934-2.81305 2.81304-4.3934 6.6284-4.3934 10.6066s1.58035 7.7936 4.3934 10.6066c2.81304 2.813 6.6284 4.3934 10.6066 4.3934s7.7936-1.5804 10.6066-4.3934 4.3934-6.6284 4.3934-10.6066-1.5804-7.79356-4.3934-10.6066c-2.813-2.81305-6.6284-4.3934-10.6066-4.3934zm-12.606 11.808c-.4228 1.6715-.50905 3.4104-.25372 5.1155s.84714 3.3424 1.741 4.8168c.89387 1.4743 2.07195 2.7562 3.46573 3.7711s2.97549 1.7425 4.65299 2.1406v-1.238l-2-2v-3l-2-2v-2.414c0-.2652.10536-.5196.29289-.7071.18754-.1875.44189-.2929.70711-.2929h8c.7956 0 1.5587.3161 2.1213.8787s.8787 1.3257.8787 2.1213v1.024c1.02.146 1.83.954 1.976 1.976h3.98c1.0217-1.5994 1.681-3.403 1.9315-5.2843.2505-1.8812.0862-3.7945-.4813-5.6055-.5676-1.81103-1.5247-3.47585-2.8042-4.87761-1.2794-1.40176-2.8502-2.50647-4.602-3.23659v2.004c0 .79565-.3161 1.55871-.8787 2.12132s-1.3257.87868-2.1213.87868h-2c-.2652 0-.5196.10536-.7071.29289-.1875.18754-.2929.44189-.2929.70711 0 .79565-.3161 1.5587-.8787 2.1213s-1.3257.8787-2.1213.8787h-1v1.414l-.88.88c-.5625.5618-1.325.8774-2.12.8774s-1.5575-.3156-2.12-.8774l-2.488-2.488z" fill="#5a57c6" fill-rule="evenodd"/></svg>