<svg fill="none" height="18" viewBox="0 0 18 18" width="18" xmlns="http://www.w3.org/2000/svg"><g fill="#5a57c6"><path d="m9.30077 3.80337-1.7865 1.7586c-.0162.0162-.0162.0459.0027.0648l1.6227 1.6227c.009.009.0162.0126.0342.0135.0135 0 .0243-.0054.0342-.0144l1.46703-1.5426c.0837-.0882.1989-.1386.3204-.1395.1251-.0018.2385.0459.324.1314l4.4253 4.42533.216-.20973c.8532-.8532 1.323-1.9872 1.323-3.1941s-.4698-2.3409-1.323-3.1941-1.9872-1.323-3.1941-1.323-2.3409.4698-3.19413 1.323l-.2313.2313c-.0135.0162-.0252.0324-.0405.0468z"/><path d="m7.18111 10.7991c-.04195-.0417-.07529-.0912-.09809-.1457s-.03462-.113-.03479-.1721c-.00016-.0591.01133-.1177.03382-.1723.02249-.0547.05554-.1044.09726-.1462.04163-.042.09113-.0753.14566-.0981.05452-.0228.11301-.0346.17212-.0348.0591-.0002.11766.0113.17231.0338.05466.0225.10434.0556.14621.0973l3.94829 3.924 1.2231-1.2222-2.4705-2.4363c-.0421-.0415-.0756-.0908-.0987-.1453-.023-.0544-.0351-.1128-.0355-.1719s.0108-.11775.0331-.1725c.0222-.05475.0551-.10458.0966-.14663.0415-.04212.0908-.07566.1453-.09868.0544-.02303.1128-.0351.1719-.03551.0591-.00042.1177.01082.1725.03307.0547.02226.1046.05509.1466.09662l2.475 2.44173 1.476-1.4751-4.0914-4.09233-1.14839 1.2078c-.08685.09204-.19142.16555-.30742.21613s-.24104.07717-.36758.07817c-.12649.00191-.25207-.02165-.36927-.06927-.1172-.04763-.22362-.11834-.31293-.20793l-1.6227-1.6227c-.08821-.08772-.15814-.19207-.20572-.30701-.04758-.11495-.07188-.23819-.07148-.36259 0-.2529.0981-.4914.2772-.6696l1.5264-1.5012c-.8397-.7866-1.9287-1.2195-3.0852-1.2195-1.2069 0-2.3409.4698-3.1941 1.323s-1.322999 1.9872-1.322999 3.1941.469799 2.3409 1.322999 3.1941l5.5278 5.52783c.3798.3798.8775.5697 1.3761.5697s.99719-.1899 1.37609-.5688l.72-.72z"/></g></svg>