<svg fill="none" height="16" viewBox="0 0 16 16" width="16" xmlns="http://www.w3.org/2000/svg" xmlns:xlink="http://www.w3.org/1999/xlink"><clipPath id="a"><path d="m0 0h16v15.6899h-16z"/></clipPath><g clip-path="url(#a)" fill="#5a57c6"><path d="m3.50647 10.1486c-.38846.1899-.37104.4651-.34316.7699.11497 1.2421.23168 2.4841.31007 3.7278.04877.7874-.71073 1.3048-1.3239.8989-.22297-.1481-.42678-.4651-.46511-.7299-.23516-1.6043-.47556-3.2139-.59227-4.83046-.04181-.56963.22472-1.17757.41982-1.74371.15852-.45989.63233-.90757.58356-1.31694-.04878-.4111-.5644-.7682-.8797-1.14621-.297875-.35711-.599236-.70898-.898855-1.0626-.2578115-.30485-.3692976-.64802-.2926509-1.04867.1393579-.74034.2734889-1.48068.4093629-2.22101.102776-.557434.510398-.851827 1.024283-.74034.45813.099292.70724.5313.60098 1.04344-.10626.5104-.19336 1.02602-.33446 1.52597-.07665.27349-.00871.44071.19684.59401.04703.03484.08361.08187.12368.12194 1.08525 1.05563 1.13228 1.07131 2.61992.7142.10975-.02613.20207-.12716.29962-.19858.02091-.01568.03136-.04878.04529-.07316.30137-.52782.79434-1.03648.85009-1.58868.054-.52782-.34317-1.10441-.5435-1.65836-.18987-.519104-.04006-.935435.40588-1.1218257.43549-.1811653.83615.0191617 1.05563.5452367.26653.641049.51911 1.289059.78563 1.930099.15155.36408.12368.70202-.08535 1.03474-.2613.41807-.4773.86924-.78041 1.25421-.89537 1.13925-1.14621 2.5067-1.43015 3.86544-.02613.12368.02613.2822.08709.40239.31879.6184.64105 1.23507.98422 1.83957.2282.4023.26826.8152.17071 1.2577-.19858.8884-.3902 1.7802-.58704 2.6704-.12717.5783-.55918.9076-1.04519.7996-.49297-.1098-.76472-.5836-.66543-1.1445.14633-.8275.28743-1.6549.42156-2.4841.01916-.1184.02613-.2752-.03484-.364-.35014-.5122-.72118-1.0086-1.09222-1.5225z"/><path d="m11.5283 10.1592c-1.0643 1.4598-1.67747 3.038-2.02412 4.7277-.08362.4094-.31181.6881-.72118.777-.71421.155-1.22809-.4199-1.07131-1.148.37801-1.7524.97028-3.4212 1.89875-4.96287.45296-.75254.50866-1.58346.49476-2.42831-.0366-.02439-.0715-.04878-.10804-.07491-.34666.47556-.74208.92499-1.02428 1.43713-.23343.42504-.32749.92499-.49821 1.38661-.16897.45295-.55394.66365-.94763.54175-.44594-.1376-.64801-.54349-.50517-1.03996.15852-.55568.31181-1.1166.50169-1.66184.08884-.25432.25781-.47904.39194-.71769.01394-.02439.03484-.04529.054-.06793 2.02591-2.36212 1.06435-1.75765 3.9856-2.48057.2996-.07316.4948-.21426.6846-.45988.7926-1.02254 1.3222-2.16875 1.7298-3.38465.1341-.400653.432-.6183994.8588-.5974958.3885.0174197.6707.2386498.7543.6096898.047.209036 0 .461626-.0732.670656-.432 1.23158-.9494 2.42831-1.6775 3.51878-.4442.66369-.7229 1.36222-.7264 2.17747-.0018.38497-.0662.79085-.2003 1.1497-.1603.42678-.0558.76298.1184 1.14621.3292.71944.7229 1.43891.8797 2.20181.2125 1.0313.2404 2.1009.3223 3.1565.047.6079-.277 1.0016-.7996 1.04-.5104.0365-.8849-.3345-.9407-.9216-.0871-.9232-.1794-1.8464-.2752-2.7697-.0139-.1289-.0261-.2735-.0941-.3762-.3153-.4826-.648-.9546-.9877-1.4494z"/><path d="m3.82184 4.18072c-.77343-.00348-1.3988-.64627-1.38661-1.42319.01394-.75775.63931-1.36744 1.40055-1.36396.77343.00348 1.40054.64627 1.38661 1.42145-.0122.75601-.64279 1.36919-1.40055 1.3657z"/><path d="m10.8244 1.39361c.7543.0122 1.3692.64279 1.3657 1.39881-.0035.77343-.6463 1.40054-1.4214 1.38661-.77174-.01394-1.3884-.66718-1.36575-1.4441.02439-.75253.66025-1.35351 1.42145-1.34132z"/></g></svg>