<svg fill="none" height="16" viewBox="0 0 16 16" width="16" xmlns="http://www.w3.org/2000/svg" xmlns:xlink="http://www.w3.org/1999/xlink"><clipPath id="a"><path d="m0 0h16v15.8507h-16z"/></clipPath><g clip-path="url(#a)"><g fill="#5a57c6"><path d="m11.451 10.1434c.7594.0928 1.4642.1511 2.158.2786.2022.0364.5281.2713.5245.4079-.0164.5482.3187.4862.6574.479.2732-.0055.5463-.0146.8195.0018.3059.02.3806-.1148.3897-.4025.0219-.7776-.2713-1.384-.9033-1.83017-.6246-.4407-1.3293-.70476-2.0833-.66833-.8031.03824-1.5989.20214-2.453.31686-.1894-.24948-.4334-.56635-.69744-.91236.65194-.18028 1.27474-.28226 1.83204-.52993.437-.19486.8486-.52265 1.1691-.8814.3114-.34783.2695-.82677.0674-1.26565 1.2838-.09288 1.5734-.38243 1.5989-1.61348.0091-.43706.2313-.61735.6246-.58821.3952.02914.5063-.13658.479-.50079-.0255-.33144.0091-.66834-.0146-.99978-.0073-.10926-.0911-.27862-.1785-.30958-1.1145-.380606-2.4803.4061-2.7316 1.5552-.0437.20214-.0892.40428-.1311.59549-1.3112.07467-1.5042.35511-1.7155 2.44207-.4024.17665-.87226.27134-1.19095.5445-.67562.57729-1.19645.41885-1.75734-.13658-.16572-.16389-.21671-.24584-.13476-.48076.20942-.59549.42431-1.20191.52629-1.8229.29137-1.79741-.80674-3.124974-2.48213-3.086731-.28955.007284-.41156.087412-.40064.391531.01821.45527.02186.91054-.00182 1.36399-.01821.34054.1038.44616.44253.44434.66469-.00546.93967.23856.99613.91236.04188.50626.0091 1.01981.0091 1.58981-.2677-.08013-.41156-.1202-.55361-.16754-.85955-.2932-1.61894-.29138-2.0906.96699-1.14728 3.06123-2.37833 6.08785-3.576596 9.12725-.058274.1475-.107443.2987-.162076.4516.076485.0201.109265.0401.131118.0328 3.432734-1.1746 6.867294-2.3474 10.296354-3.5292.4917-.1694.7066-.5664.6975-1.0617-.0055-.326-.0892-.652-.1603-1.1145z"/><path d="m9.92666 2.61871c.48444-.46802.94694-.91418 1.34944-1.30389-.4353-.447986-.8814-.91054-1.2711-1.31482-.44802.435238-.91057.883223-1.36584 1.32392.4316.43524.87776.88323 1.2875 1.29479z"/><path d="m3.64389 2.81543c-.47348-.47894-.92693-.93604-1.30025-1.31482-.42249.41521-.8814.86501-1.26747 1.24198.42067.42249.87412.87958 1.30207 1.30935.41521-.4061.86684-.84862 1.26565-1.23651z"/><path d="m13.8475 14.4011c-.428-.4262-.8833-.8796-1.313-1.3058-.4335.4207-.896.8669-1.3294 1.2875.437.4535.8832.9179 1.3093 1.3604.448-.4516.9015-.9069 1.3331-1.3421z"/><path d="m14.2607 6.33013c.2914.33872.5537.64284.7576.8814.3387-.28955.6429-.55179.8577-.73572-.2804-.346-.5354-.65741-.7812-.96153-.3151.30776-.5937.58093-.8341.81585z"/><path d="m.814022 7.57574c.338718-.28955.644658-.55179.883228-.75757-.29138-.33872-.55361-.64284-.757573-.8814-.338721.29137-.642841.55361-.939677.80674.307762.31504.580924.59367.814022.83223z"/><path d="m11.451 10.1434c.0692.4625.153.7885.1603 1.1145.0109.4953-.2058.8923-.6975 1.0617-3.42906 1.1819-6.8618 2.3546-10.296354 3.5292-.021853.0073-.054633-.0127-.131118-.0328.054632-.1547.103802-.3041.162076-.4516 1.196446-3.0394 2.427496-6.066 3.578416-9.12359.47348-1.25836 1.23287-1.26019 2.0906-.96699.14023.04735.28591.08741.55361.16754 0-.56818.0346-1.08172-.0091-1.58981-.05646-.67379-.33144-.91964-.99613-.91236-.33873.00365-.46074-.1038-.44253-.44434.02368-.45345.02004-.91054.00182-1.36399-.01274-.302296.11109-.384245.40064-.391529 1.67539-.038243 2.77168 1.289319 2.48213 3.086729-.10016.62099-.31504 1.22559-.52629 1.8229-.08195.23492-.03096.31687.13476.48076.56089.55543 1.08172.71387 1.75734.13659.31869-.27317.78853-.36786 1.19103-.54451.2112-2.08695.4042-2.3674 1.7154-2.44206.0419-.19122.0874-.39336.1311-.5955.2495-1.1491 1.6172-1.935804 2.7317-1.5552.0874.02914.1693.1985.1784.30959.0237.33143-.0109.66833.0146.99977.0273.36603-.0838.52993-.479.50079-.3933-.02913-.6155.15115-.6246.58821-.0255 1.23105-.315 1.5206-1.5989 1.61348.2003.43888.244.91782-.0674 1.26565-.3223.35875-.732.68655-1.1691.8814-.5573.24767-1.1801.34965-1.83202.52993.26402.34601.50812.66288.69752.91237.854-.11655 1.6517-.27863 2.453-.31687.7539-.03642 1.4586.22763 2.0833.66833.6319.44617.9251 1.05261.9032 1.83021-.0073.2877-.0837.4225-.3897.4024-.2713-.0182-.5463-.0072-.8195-.0018-.3387.0055-.6738.0692-.6574-.4789.0037-.1366-.3223-.3715-.5245-.408-.6956-.1292-1.4004-.1893-2.1598-.2822zm-4.86224-2.79173c-.06555-.0346-.13111-.06738-.19667-.10198.07102-.34236.14204-.68655.22763-1.09811-.34965-.10198-.68654-.2331-1.03619-.29502-.36058-.06373-.57182.14387-.50626.50262.06556.35147.173.7084.32961 1.02891.57729 1.17824 1.44958 2.12156 2.44753 2.95381.67927.5663 1.40223 1.0617 2.27449 1.2857.6192.1602.8651-.0966.7175-.7212-.0182-.0728-.04-.1457-.0564-.2203-.0619-.3023-.2076-.4389-.5409-.346-.36236.1019-.73568.1693-1.10901.2258-.13111.02-.27316-.031-.41156-.0492.05828-.1129.09106-.2513.17665-.3369.34054-.34418.69565-.67197 1.06715-1.02708-.22582-.27499-.46802-.54633-.67926-.8377-.16754-.23128-.33326-.20578-.5354-.06374-.35875.25313-.71751.50808-1.08901.743-.09469.0601-.23674.04189-.35693.0601.02003-.12201.00546-.26406.06556-.3624.28045-.46073.58275-.91054.89415-1.3913-.34054-.25495-.65923-.49351-.97428-.73025-.26041.28955-.4844.53539-.7084.78124z"/><path d="m9.92653 2.61871c-.40974-.41156-.85591-.85955-1.28932-1.29479.45527-.442518.91782-.890503 1.36579-1.32392.3897.40428.8377.866834 1.2711 1.31482-.4024.38971-.865.83587-1.34757 1.30389z"/><path d="m3.64389 2.81543c-.39699.38789-.85044.83041-1.26565 1.23651-.42795-.42977-.8814-.88504-1.30207-1.30935.38425-.37697.84498-.82859 1.26747-1.24198.37332.37878.82677.83588 1.30025 1.31482z"/><path d="m13.8475 14.4011c-.4316.4352-.8851.8905-1.3331 1.3421-.4261-.4425-.8723-.9051-1.3093-1.3604.4334-.4206.8959-.8668 1.3294-1.2875.4297.4262.885.8796 1.313 1.3058z"/><path d="m14.2607 6.33013c.2404-.23492.519-.50809.8341-.81585.2458.3023.5008.61553.7812.96153-.2148.18393-.5208.44617-.8577.73572-.2039-.23856-.4662-.54268-.7576-.8814z"/><path d="m.814022 7.57574c-.233098-.23856-.50626-.51719-.814022-.83223.296836-.25496.600956-.51719.939677-.80674.203963.23674.466193.54268.757573.8814-.23857.20578-.54451.4662-.883228.75757z"/></g><path d="m6.58882 7.35174c.22399-.24584.44799-.49169.7084-.77942.31505.23674.63556.4753.97428.73025-.31141.48077-.61189.93058-.89415 1.39131-.0601.09834-.04553.24038-.06556.36239.12019-.01821.26223-.00182.35693-.06009.3715-.2331.73025-.48987 1.08901-.743.20213-.14205.36603-.16572.53539.06374.21307.29137.45345.56271.67926.83769-.3715.35511-.72661.68291-1.06715 1.02709-.08559.0856-.11837.224-.17664.3369.13658.0182.28044.0692.41156.0492.37332-.0583.74664-.1257 1.10905-.2258.3351-.0929.4808.0418.5408.346.0146.0746.0383.1456.0565.2203.1475.6246-.0983.8796-.7175.7212-.87048-.224-1.59527-.7194-2.27453-1.2857-.99795-.83226-1.87025-1.77557-2.44753-2.95381-.15661-.32051-.26406-.67744-.32962-1.02891-.06738-.35876.14569-.56454.50626-.50262.34965.06192.68655.19121 1.0362.29501-.08559.41157-.15662.75393-.22764 1.09811.06556.03278.13112.06738.19668.10016z" fill="#fff"/></g></svg>