<svg fill="none" height="40" viewBox="0 0 40 40" width="40" xmlns="http://www.w3.org/2000/svg"><rect fill="#716df7" fill-opacity=".1" height="40" rx="8" width="40"/><path d="m10.0332 28.723c-.03473-.0212-.07778-.049-.13696-.0878-.5468-.3668-.89624-.9648-.89624-1.6352v-14c0-1.104.89603-2 2-2h5c1.104 0 2 .896 2 2v1h1 8c1.104 0 2 .896 2 2v1h-13.375c-.5876 0-1.1751.2838-1.5846.5541-.3728.2461-.7952.6113-1.0521 1.0541-.0012.0016-.0024.0032-.0037.0049-.0454.0604-.1002.1471-.1418.2601l-3.0925 8.3092-.0628.1688v.0326c-.04174.1302-.07175.2681-.07736.411-.00472.1206.00725.2597.05513.4049.03671.1114.08831.2004.11338.24zm3.1824-10.3336-.0029.0021c.0023-.0017.0043-.0031.0029-.0021zm16.4049 9.0293.0592-.0592c-.5041.9878-1.5691 1.6405-2.7109 1.6405.5833 0 1.1763-.2805 1.5916-.5485.3688-.2381.7961-.5948 1.0601-1.0328zm3.2053-9.8929c.0154.023.0299.0472.0434.0726-.0243-.0425-.041-.0651-.0371-.0594-.0506-.0757-.1078-.1418-.1703-.1993.0644.0565.1186.1179.1616.1826z" fill="#eee" stroke="#4e47db" stroke-width="2"/><path d="m12.5 11.5-3 .5v8.5l.5 3 1-1.5.5-2 1.5-2 3-1 12.5-.5-.5-1-.5-.5-2-.5-4-.5h-3.5l-.5-1.5-1-.5-2-.5z" fill="#4e47db"/></svg>