<svg width="20" height="23" viewBox="0 0 20 23" fill="none" xmlns="http://www.w3.org/2000/svg">
<path d="M1 3C1 1.89543 1.89543 1 3 1H17C18.1046 1 19 1.89543 19 3V20C19 21.1046 18.1046 22 17 22H3C1.89543 22 1 21.1046 1 20V3Z" fill="#F1F0FE" stroke="#5A57C6" stroke-width="2"/>
<path d="M9 2C9 1.44772 9.44772 1 10 1H14C14.5523 1 15 1.44772 15 2V9.38197C15 10.1253 14.2177 10.6088 13.5528 10.2764L12.4472 9.72361C12.1657 9.58284 11.8343 9.58284 11.5528 9.72361L10.4472 10.2764C9.78231 10.6088 9 10.1253 9 9.38197V2Z" fill="#5A57C6"/>
</svg>
