<svg fill="none" height="30" viewBox="0 0 30 30" width="30" xmlns="http://www.w3.org/2000/svg" xmlns:xlink="http://www.w3.org/1999/xlink"><clipPath id="a"><path d="m0 0h30v30h-30z"/></clipPath><g clip-path="url(#a)" fill="#5a57c6"><path d="m28 2h-26v-2h26zm-25.98 2.804c.04529-.22661.16767-.43054.34634-.57711.17866-.14658.40257-.22675.63366-.22689h24c.2311.00014.455.08031.6337.22689.1786.14657.301.3505.3463.57711l2 10c.029.145.0254.2947-.0104.4382-.0358.1434-.103.2772-.1967.3916s-.2117.2066-.3453.2699c-.1337.0633-.2797.0962-.4276.0963h-28c-.147891-.0001-.293921-.033-.42757-.0963s-.251589-.1555-.345322-.2699c-.093734-.1144-.1609277-.2482-.1967408-.3916-.03581314-.1435-.0393539-.2932-.0103672-.4382zm-.02 13.196v10h-2v2h30v-2h-2v-10h-4v4h-18v-4z"/><path d="m8 18h14v2h-14z"/></g></svg>