<svg fill="none" height="54" viewBox="0 0 54 54" width="54" xmlns="http://www.w3.org/2000/svg"><path d="m24.83 9.01019c-.0057-.55624.4437-1.01019.9999-1.01019h8.1361c.5523 0 1 .44772 1 1v15.9704c0 .0214.0006.0402.0018.0617.0298.5214.3955 7.8288-2.3304 11.3056-2.1794 2.7797-6.1819 6.4203-7.9026 7.9435-.4403.3898-1.1156.3055-1.4563-.1739l-4.6588-6.5543c-.3353-.4717-.2053-1.1316.2691-1.4631 1.5463-1.0802 4.6422-3.4878 5.4319-5.935.7955-2.4641.6779-5.5567.6662-5.8211-.0006-.0135-.001-.025-.0011-.0385z" fill="#000"/></svg>