<svg fill="none" height="40" viewBox="0 0 40 40" width="40" xmlns="http://www.w3.org/2000/svg" xmlns:xlink="http://www.w3.org/1999/xlink"><clipPath id="a"><path d="m18 3h22v22h-22z"/></clipPath><path d="m30.8098 38.6842c0-1.9171-.3658-3.9523.0915-5.778.5717-2.2791 1.5322-4.5812 2.8395-6.5288 4.5355-6.7613 1.5283-15.1501-2.7518-18.37066-8.4764-6.38018-20.5584-2.10767-23.10818 8.11436-.49929 2.0048-1.89424 3.8037-2.98047 5.637-1.39114 2.3477-1.26156 2.9728 1.03287 4.4173.46498.2935 1.01382.8271 1.08242 1.3111.88423 6.4183 1.36827 6.9405 7.60366 7.7027v3.4988" fill="#5a57c6"/><g clip-path="url(#a)"><path d="m37.7788 16.1302c-.4274-.1682-.7941-.4616-1.052-.8417s-.395-.8292-.3934-1.2885v-.0128c-.0023-.4593.134-.9087.3913-1.2892.2572-.3806.6234-.6746 1.0505-.8436.5762-.2302.8634-.89.6401-1.471-.3835-.99751-.9235-1.92755-1.5997-2.75513-.1898-.23211-.4632-.38039-.7613-.41291-.298-.03253-.5969.05331-.8323.23903-.36.28425-.7969.45394-1.2544.48714-.4574.03319-.9143-.07164-1.3116-.30095-.3967-.22725-.716-.56839-.9166-.97923-.2006-.41085-.2732-.87245-.2084-1.32504.0428-.29888-.0337-.60262-.2131-.84548-.1795-.24286-.4473-.4053-.7456-.45217-1.0528-.16442-2.125-.16268-3.1774.00515-.1479.02343-.2896.07601-.4171.15469-.1274.07868-.2379.18189-.3251.30365-.1759.24289-.25.54486-.2066.84161.0462.3249.0223.65595-.0703.9708-.0926.31484-.2517.60614-.4666.85423-.2148.24808-.4804.44716-.7788.58381-.2984.13664-.6226.20765-.9508.20824-.514-.00063-1.0131-.17299-1.418-.4897-.2359-.18529-.5352-.27046-.8333-.23716-.2982.0333-.5713.18241-.7605.4152-.674.82923-1.2114 1.76059-1.5922 2.75902-.2217.5812.0672 1.2404.6446 1.4691.4266.1692.7926.4626 1.0506.8422s.3961.8279.3965 1.2868c.0004.459-.137.9075-.3944 1.2875-.2573.38-.6228.674-1.0492.844-.5763.2292-.8641.8893-.6413 1.4704.3826.9979.9218 1.9284 1.5974 2.7566.0941.1161.2103.2123.3419.2832.1315.0709.2758.115.4245.1297.2977.0308.5957-.0556.8307-.2409.3599-.2823.796-.4505 1.2522-.4829.4562-.0325.9117.0722 1.3079.3007.3962.2284.715.5702.9155.9813.2004.4111.2733.8727.2093 1.3256-.0431.2988.0333.6027.2125.8457.1793.243.447.4057.7453.4528 1.0504.1649 2.1201.1644 3.1704-.0015.2982-.0474.5658-.2103.7449-.4535.179-.2432.2551-.5471.2118-.846-.0657-.4525.006-.9144.2059-1.3257.1998-.4113.5186-.7531.915-.9811.3957-.2307.8516-.337 1.3085-.305.4569.0319.8936.2006 1.2533.484.2354.1853.5337.2715.8316.2402.1487-.0149.293-.0591.4244-.1301.1315-.071.2476-.1674.3416-.2835.6747-.8286 1.213-1.7595 1.5946-2.7575.2221-.5815-.0662-1.2408-.6428-1.4701zm-6.0287-2.1302c0 1.5163-1.2336 2.75-2.75 2.75s-2.75-1.2337-2.75-2.75c0-1.5164 1.2336-2.75 2.75-2.75s2.75 1.2336 2.75 2.75z" fill="#edecff" stroke="#5a57c6" stroke-width="2"/></g></svg>