<svg fill="none" height="30" viewBox="0 0 30 30" width="30" xmlns="http://www.w3.org/2000/svg" xmlns:xlink="http://www.w3.org/1999/xlink"><clipPath id="a"><path d="m0 0h30v30h-30z"/></clipPath><g clip-path="url(#a)" fill="#5a57c6"><path d="m12 12.9919c0-.7956.3161-1.5587.8787-2.1213s1.3257-.87866 2.1213-.87866 1.5587.31606 2.1213.87866.8787 1.3257.8787 2.1213c0 .7957-.3161 1.5588-.8787 2.1214s-1.3257.8786-2.1213.8786-1.5587-.316-2.1213-.8786-.8787-1.3257-.8787-2.1214z"/><path clip-rule="evenodd" d="m2 12.992c.00159-3.44659 1.372-6.75144 3.80985-9.1878 2.43786-2.43636 5.74355-3.80473054 9.19015-3.80419985 7.178 0 13 5.81799985 13 12.99199985 0 5.348-2.676 9.586-5.544 12.45-1.2678 1.2733-2.6887 2.3845-4.23 3.308-.644.38-1.246.68-1.77.884-.494.196-1.012.348-1.456.348s-.962-.152-1.456-.348c-.6118-.2489-1.2035-.5445-1.77-.884-1.5413-.9236-2.96215-2.0347-4.23-3.308-2.868-2.864-5.544-7.102-5.544-12.45zm13-4.998c-1.3261 0-2.5979.52678-3.5355 1.46447-.9377.93763-1.4645 2.20943-1.4645 3.53553s.5268 2.5979 1.4645 3.5355c.9376.9377 2.2094 1.4645 3.5355 1.4645s2.5979-.5268 3.5355-1.4645c.9377-.9376 1.4645-2.2094 1.4645-3.5355s-.5268-2.5979-1.4645-3.53553c-.9376-.93769-2.2094-1.46447-3.5355-1.46447z" fill-rule="evenodd"/></g></svg>