<svg fill="none" height="54" viewBox="0 0 54 54" width="54" xmlns="http://www.w3.org/2000/svg"><path clip-rule="evenodd" d="m40.8758 28.4093h-3.531v-3.6741h3.4204c.0605-.2168.0727-2.5377.017-2.8742h-2.1994c-.0709-.2141-.0849-3.2871-.0199-3.6207h1.0991 1.1393l.0955-1.213c.0271-.0036.0526-.0077.0769-.0117.0496-.0082.0945-.0156.1394-.0156l.2186.0006c.8732.0024 1.7466.0048 2.6198.0127.3962.0037.535.1385.5575.5357.0081.1421.0062.2847.0041.4369v.0001.0003.0004.0003.0004.0004c-.001.071-.002.1441-.002.2202l.1278.0002c.0849.0002.1611.0004.2374-.0005.6459-.0074 1.2923-.0127 1.9252.1446 1.6116.4007 2.5807 1.4229 2.9273 3.0417.1135.5301.1108 1.0674.1081 1.6043-.0006.1173-.0012.2345-.0006.3517.0015.2944.0011.5889.0008.8908v.0003.0003.0003.0003.0003l-.0003.3993c.0895.0145.1775.0275.2644.0403.19.028.3746.0553.5561.0955.0899.0199.1802.0387.2707.0575h.0001.0001v.0001h.0001.0001c.3255.0677.6521.1357.9589.2532 1.329.5087 2.041 1.5089 2.0773 2.9174.0449 1.7321.0497 3.4674-.0008 5.1992-.0371 1.2751-.7162 2.1858-1.9 2.6664-1.1021.4474-2.232.4487-3.3381.0056-1.1063-.4435-1.7267-1.2783-1.8552-2.4693-.0066-.0613-.0058-.1237-.0047-.1855.0005-.028.0038-.0559.008-.0915.0023-.0194.0048-.041.0073-.0661.3841-.0258.7666-.0223 1.1485-.0188.1804.0016.3607.0032.5409.0018.3918-.0033.7837-.0025 1.1822-.0018.176.0004.3534.0007.5326.0007.0015-.0102.0031-.0203.0047-.0301l.0042-.024.0038-.021c.0089-.0487.0169-.0931.0168-.1377-.0004-.3702-.0022-.7404-.004-1.1105v-.0001-.0001-.0001-.0001c-.0037-.7617-.0074-1.5233.0016-2.2848.0071-.6037-.3657-.9816-.9556-1.0097-.4679-.0223-.937-.0263-1.4054-.0276-.8209-.002-1.6419-.0003-2.4628.0015h-.0005-.0005-.0005-.0005-.0005l-.7186.0014c-.0446 0-.0893.0031-.1424.0068-.0291.0021-.0607.0043-.0962.0062v7.6825h-3.6531zm5.3767-3.7086c.0021-.0238.0046-.0462.0069-.0676.0048-.0447.0092-.0849.0095-.1253l.0005-.0759c.0025-.4338.005-.8676.0035-1.3013v-.0003c-.0008-.2117-.0016-.4242-.0196-.6348-.026-.303-.2712-.5748-.5666-.618-.3471-.051-.6956-.0306-1.0539-.0096l-.088.0051v2.8277zm-21.416 11.4348c.0241-.0487.0458-.0935.0662-.1355l.0001-.0001v-.0002l.0001-.0001c.0403-.0832.0754-.1557.1138-.2264l.0331-.0606c.3274-.6009.6546-1.2014.8559-1.8614.0355-.1166.095-.2269.1534-.3354l.0135-.025c.3906-.7255 1.018-1.1358 1.9799-1.032.6186.0666 1.2329.0907 1.8521.0629.047-.0022.0939-.0054.1483-.0091l.0862-.0058c.0046-.0293.0097-.0583.0148-.0871.0116-.0657.023-.1304.0269-.1955.0093-.1587.0119-.3182.0119-.4774.0004-.9723.0003-1.9445.0003-2.9168-.0001-1.3362-.0001-2.6724.0008-4.0085.0003-.3934.0027-.7868.0051-1.1802.0022-.3671.0045-.7343.005-1.1015.0008-.561-.1497-.7032-.7091-.7027-.3091.0003-.6188-.0013-.9272-.0215-.4859-.0316-.6984-.2226-.7141-.712-.0212-.6606-.0248-1.3217-.0284-1.9828v-.0001-.0001c-.0014-.2582-.0028-.5165-.0053-.7747-.0002-.0114.0049-.0228.01-.0343.0022-.005.0044-.01.0062-.015.1797-.0589 7.9608-.0791 8.3252-.0191.0024.0165.0056.0335.0088.0508v.0001c.0073.0394.015.0804.0148.1215-.0005.301-.0023.602-.0042.9031v.0001.0001c-.004.6364-.0079 1.2728.0018 1.9089.0066.4362-.241.5509-.539.5748-.2092.0167-.4199.0166-.6305.0164-.0992 0-.1984-.0001-.2975.0016l-.0824.0012c-.1052.0014-.2105.0027-.3151.0118-.307.0268-.4978.2325-.4997.5398-.0045.7783-.0071 1.5566-.0077 2.3349-.0015 1.7642-.0023 3.5282-.0032 5.2923v.0293l-.001 2.1345v.3206h.3083l.7807-.0003c.6508-.0003 1.3016-.0006 1.9524.0011.4771.0013.5397.0634.5408.5318.0019.9375.0011 1.8751 0 2.8126 0 .0578-.0038.1155-.0078.1767v.0002c-.002.0304-.0041.0617-.0057.0943-4.1759-.0002-8.3305-.0002-12.5385-.0002zm-17.80341-3.0062h-2.29597c.00322.0542.0059.1049.00845.1533l.00001.0001c.00566.1072.01071.203.01967.2986.10907 1.2.88793 2.1701 2.00115 2.4835.51879.146 1.04821.1675 1.57629.0661 1.01849-.1956 1.73131-.7775 2.09321-1.7509.1186-.3192.1953-.665.2248-1.0041.0472-.5448.0523-1.0947.0528-1.6424.0031-4.322.0023-8.644.0016-12.966l-.0003-1.4396c0-.0556-.0042-.1113-.009-.1756-.0026-.0341-.0053-.0707-.0077-.111-.4089.0007-.81542.0002-1.2215-.0002-.81158-.0008-1.62123-.0016-2.44351.0058zm19.32501-4.6333-.0001.0001c-.0156.046-.0281.0827-.0454.1169-.1347.2647-.2701.5291-.4055.7934-.2835.5536-.567 1.1072-.8439 1.6639-.1046.2102-.2564.3044-.4785.3097-.0945.0023-.1891.005-.2837.0077-.2589.0074-.5177.0149-.7764.0133-.7866-.0045-1.5734-.0133-2.3597-.0313-.1653-.0037-.3346-.0385-.4933-.0876-.6382-.1964-.9423-.6958-.812-1.3494.0446-.2232.1197-.445.2136-.6525.3811-.8423.7676-1.6821 1.1541-2.5219l.0003-.0006.0018-.0038.0017-.0038.0017-.0038c.1472-.3198.2945-.6397.4414-.9597.033-.0718.0643-.1443.0999-.2267l.0003-.0007c.0187-.0431.0385-.089.0603-.1388-.0525 0-.1001.0002-.1442.0005-.0889.0005-.1641.0009-.2392-.0011l-.3574-.0085h-.0002c-.437-.0103-.874-.0206-1.3108-.0382-.121-.0047-.2436-.044-.3599-.0838-.6419-.2205-.9354-.7332-.7825-1.3943.0512-.2215.1364-.4394.2346-.6453.6932-1.4534 1.3914-2.9045 2.0897-4.3558l.0002-.0003.0001-.0003.0003-.0005.2836-.5896c.1494-.3105.3004-.6202.4557-.9278.1061-.2104.26-.3457.5177-.3449.703.0023 1.406.0009 2.109-.0005.3402-.0007.6804-.0014 1.0205-.0017.0168 0 .0335.0035.0534.0076.0108.0022.0226.0046.0358.0068.017.0945-.0272.1693-.0702.2421-.0133.0226-.0266.045-.0378.0678-.3684.7439-.7385 1.4868-1.1086 2.2298l-.0001.0002-.0001.0003-.0002.0003c-.2128.4273-.4257.8546-.6382 1.2821-.0434.0874-.0849.1758-.1264.2642v.0001l-.0001.0001-.0001.0002c-.0598.1276-.1196.2551-.1852.3795-.1301.2462-.1237.4896-.0202.747.0088-.0043.0183-.0078.0273-.011.018-.0066.0344-.0125.0412-.024.2115-.3663.5464-.4735.9444-.4674.4554.0071.9108.0085 1.3661.0098l.3312.0011c.2386.0009.4773.0007.7159.0005h.0003l.3182-.0002h.3097c-.0171.0417-.0319.0791-.0454.1137-.0267.0677-.0489.1241-.0756.1782-.6305 1.2751-1.2624 2.5497-1.8942 3.8242-.0805.1625-.1613.3248-.242.4871l-.0004.0008-.0002.0003-.0001.0003-.0001.0002c-.1827.3672-.3654.7343-.5453 1.1027-.0656.1346-.1258.2739-.1675.4172-.0642.2211.0008.3421.2203.4004.1348.0361.2783.0475.4185.0534.2139.0086.4278.014.6418.0193h.0001.0002c.1658.0041.3316.0082.4973.0139.0555.0017.1109.0112.1729.0218.0308.0053.0632.0108.0981.0158-.0112.0304-.0203.0572-.0285.0815zm-21.61701-6.4113.0254-.3266-.12158.0001h-.0004c-.06537 0-.12083.0001-.17629-.0001l-.71582-.002h-.00062-.00063c-.71613-.0021-1.43233-.0042-2.14839-.0054l-.01193-.0001h-.00001c-.08428-.0002-.17001-.0005-.25236.0144-.22238.0409-.364886.1691-.400976.3999-.01088.0701-.021761.1401-.027599.2105l-.027404.3308h-.000001v.0001c-.033955.4087-.067909.8173-.097583 1.2265l-.023417.3226c-.065838.9065-.131679 1.813-.188613 2.7199-.072711 1.158-.182574 2.3095-.5469258 3.42-.0453781.138-.029456.2577.0339672.3816l.0920556.1798.000186.0004.000218.0004c.569461 1.1122 1.138962 2.2245 1.704882 3.3385.07271.143.16055.2277.34551.1789l.19736-.3774c.16532-.3159.33196-.6343.49711-.9535.37842-.7313.71623-1.4786.92959-2.2784.28421-1.0652.38266-2.1561.46944-3.2495.09092-1.1428.18345-2.2855.27598-3.4283l.00001-.0001.00007-.0009.00014-.0017.00014-.0018c.04293-.5301.08585-1.0602.12861-1.5903.01335-.1655.02617-.3311.03985-.5078zm8.24061-.3005h.0001c.0383-.006.0722-.0113.1061-.0111.3138.0018.6276.0044.9415.007.7202.006 1.4403.0119 2.1604.0079.242-.0013.3736.1024.4209.3113.0522.2311.0817.4689.1011.7056.1236 1.5235.2425 3.0475.3611 4.5715.017.2178.0322.4358.0474.6538v.0005c.026.3725.052.7451.0867 1.1168.0185.199.0589.4052.1371.5875.185.4304.1972.8558.034 1.2891-.0528.1402-.1146.2779-.1812.4119-.448.9005-.8979 1.8003-1.3477 2.6998l-.0008.0017-.0718.1435c-.0246.049-.0509.0971-.0797.1498-.0161.0293-.0329.06-.0506.093-.0202-.0212-.0381-.0393-.0543-.0555-.0293-.0296-.0527-.0531-.0731-.079-.8855-1.1292-1.4651-2.3843-1.6245-3.8264-.0978-.8841-.2056-1.7671-.3135-2.6501-.086-.7041-.172-1.4083-.2528-2.113-.108-.9402-.2072-1.8813-.3064-2.8225v-.0001l-.0001-.001c-.0378-.3588-.0756-.7175-.1139-1.0762-.002-.0163.0005-.033.0043-.0576.0021-.0135.0046-.0295.0069-.0491.0225-.0028.0432-.006.0628-.0091zm11.9689 10.7438c.0093-.0241.0191-.0498.0304-.0775-.0328-.0025-.0624-.0054-.0901-.0081-.0506-.005-.0944-.0092-.1383-.0094-.5125-.0003-1.0249-.0003-1.5373-.0003-1.2297.0001-2.4595.0002-3.6892-.0045-.178-.0008-.2651.0632-.3436.2174-.3585.7043-.7222 1.4059-1.0859 2.1075-.157.3028-.314.6056-.4705.9086-.023.0447-.0424.0913-.066.1483-.0125.0303-.0263.0637-.0426.1012.0577.0157.1132.0343.1672.0524.113.0378.2197.0735.3272.0766.8303.0236 1.6606.0431 2.4909.0625.7429.0174 1.4859.0349 2.2287.0553.2577.0071.4076-.0964.5215-.3193.3617-.7083.7278-1.4145 1.0938-2.1207.183-.3532.366-.7063.5485-1.0597.0206-.0398.0367-.0819.0553-.1303z" fill="#000" fill-rule="evenodd"/></svg>