<svg width="19" height="11" viewBox="0 0 19 11" fill="none" xmlns="http://www.w3.org/2000/svg">
<path fill-rule="evenodd" clip-rule="evenodd" d="M15.584 6.2251H0.976562C0.4375 6.2251 0 5.7876 0 5.24854C0 4.70947 0.4375 4.27197 0.976562 4.27197H15.584L12.9785 1.6665C12.5977 1.28564 12.5977 0.666504 12.9785 0.285645C13.3594 -0.0952149 13.9785 -0.0952149 14.3594 0.285645L18.5039 4.42822C18.7293 4.65359 18.8213 4.96238 18.7799 5.25587C18.8162 5.54495 18.7236 5.84724 18.502 6.06885L14.3594 10.2114C13.9785 10.5923 13.3594 10.5923 12.9785 10.2114C12.5977 9.83057 12.5977 9.21143 12.9785 8.83057L15.584 6.2251Z" fill="white"/>
</svg>
