<svg fill="none" height="7" viewBox="0 0 12 7" width="12" xmlns="http://www.w3.org/2000/svg"><path clip-rule="evenodd" d="m9.95276 3.97568h-9.329076c-.344273 0-.623684-.27941-.623684-.62369 0-.34427.279411-.62368.623684-.62368h9.329066l-1.66398-1.66399c-.24324-.243239-.24324-.638655 0-.881892.24323-.2432372.63865-.2432372.88189 0l2.64694 2.645672c.1439.14393.2027.34114.1763.52858.0231.18462-.036.37767-.1776.51921l-2.64564 2.64567c-.24324.24323-.63866.24323-.88189 0-.24324-.24324-.24324-.63866 0-.88189z" fill="#000" fill-rule="evenodd"/></svg>