<svg width="12" height="7" viewBox="0 0 12 7" fill="none" xmlns="http://www.w3.org/2000/svg">
<path fill-rule="evenodd" clip-rule="evenodd" d="M9.95276 3.97568H0.623684C0.279411 3.97568 0 3.69627 0 3.35199C0 3.00772 0.279411 2.72831 0.623684 2.72831H9.95275L8.28877 1.06432C8.04553 0.821081 8.04553 0.425665 8.28877 0.182428C8.532 -0.0608092 8.92742 -0.0608092 9.17066 0.182428L11.8176 2.8281C11.9615 2.97203 12.0203 3.16924 11.9939 3.35668C12.017 3.5413 11.9579 3.73435 11.8163 3.87589L9.17066 6.52156C8.92742 6.76479 8.532 6.76479 8.28877 6.52156C8.04553 6.27832 8.04553 5.8829 8.28877 5.63967L9.95276 3.97568Z" fill="black"/>
</svg>
