<svg fill="none" height="11" viewBox="0 0 19 11" width="19" xmlns="http://www.w3.org/2000/svg"><path clip-rule="evenodd" d="m15.584 6.2251h-14.607438c-.539062 0-.976562-.4375-.976562-.97656 0-.53907.4375-.97657.976562-.97657h14.607438l-2.6055-2.60547c-.3808-.38086-.3808-.999996 0-1.380855.3809-.3808599 1-.3808599 1.3809 0l4.1445 4.142575c.2254.22537.3174.53416.276.82765.0363.28908-.0563.59137-.2779.81298l-4.1426 4.14255c-.3809.3809-1 .3809-1.3809 0-.3808-.38083-.3808-.99997 0-1.38083z" fill="#fff" fill-rule="evenodd"/></svg>