<svg fill="none" height="20" viewBox="0 0 20 20" width="20" xmlns="http://www.w3.org/2000/svg"><path clip-rule="evenodd" d="m16.1895 10.9766h-14.60747c-.53906 0-.976561-.4375-.976561-.9766 0-.53906.437501-.97656.976561-.97656h14.60747l-2.6055-2.60547c-.3809-.38086-.3809-1 0-1.38086.3808-.38086 1-.38086 1.3808 0l4.1446 4.14258c.2253.22536.3173.53415.276.82761.0363.2891-.0564.5914-.278.813l-4.1426 4.1426c-.3808.3809-1 .3809-1.3808 0-.3809-.3809-.3809-1 0-1.3809z" fill="#000" fill-rule="evenodd"/></svg>