<svg fill="none" height="47" viewBox="0 0 34 47" width="34" xmlns="http://www.w3.org/2000/svg"><path d="m29.9197 15.1202c-.2602.2392-.6009.3745-.9561.3795-.3552.0051-.6997-.1203-.9669-.352-2.5865-2.16-5.8611-3.3464-9.2459-3.35-2.7846 0-5.5718.9075-5.5718 3.435 0 2.5575 2.9868 3.41 6.4335 4.6875 6.0292 1.99 11.0249 4.4899 11.0249 10.3424 0 6.3625-4.9957 10.7374-13.15 11.2199l-.7454 3.41c-.0663.3134-.2396.5946-.4909.7963-.2513.2018-.5652.3116-.8888.3112h-5.1397l-.25778-.0275c-.36781-.0815-.68847-.3028-.89272-.6162s-.27569-.6937-.1989-1.0588l.80355-3.61c-3.09504-.7674-5.94141-2.3023-8.27053-4.4599v-.0275c-.12874-.1267-.2309-.2772-.30062-.443-.06971-.1659-.1056-.3437-.1056-.5233s.03589-.3574.1056-.5232c.06972-.1658.17188-.3164.30062-.443l2.87308-2.755c.54075-.5 1.38221-.5 1.92297 0 2.62751 2.4558 6.11943 3.801 9.73363 3.75 3.7347 0 6.2313-1.5625 6.2313-4.035s-2.5269-3.125-7.2926-4.885c-5.05382-1.79-9.84987-4.3199-9.84987-10.2274 0-6.87494 5.77147-10.22742 12.60667-10.53991l.7177-3.49498c.0664-.31054.2404-.58838.4918-.78556s.5646-.301312.8853-.29443h5.1119l.2881.03c.1773.03683.3454.10795.4948.20928s.2771.23088.3757.38119.1663.31842.199.49467.03.35717-.0082.53235l-.7758 3.89247c2.6063.85575 5.0233 2.19646 7.1208 3.95002l.0581.055c.5459.5699.5459 1.4224 0 1.9324z" stroke="#000" stroke-linecap="round" stroke-linejoin="round" stroke-width="2"/></svg>