<svg fill="none" height="50" viewBox="0 0 47 50" width="47" xmlns="http://www.w3.org/2000/svg"><g stroke="#000" stroke-linecap="round" stroke-linejoin="round" stroke-width="2"><path d="m39.41 39.4098c3.1467-3.1467 5.2896-7.1558 6.1577-11.5204.8681-4.3645.4226-8.8885-1.2804-12.9998-1.703-4.1114-4.5869-7.62537-8.287-10.09769s-8.0502-3.79191-12.5003-3.79191-8.8002 1.31959-12.5003 3.79191c-3.70009 2.47232-6.58397 5.98629-8.28695 10.09769-1.70298 4.1113-2.148574 8.6353-1.28043 12.9998.86815 4.3646 3.01104 8.3737 6.15769 11.5204"/><path d="m22.9152 48.4998h1.17c1.2188.0003 2.3959-.4447 3.3097-1.2513.9139-.8066 1.5016-1.9192 1.6527-3.1287l1.25-10c.088-.7036.0252-1.4178-.184-2.0953-.2092-.6774-.5601-1.3027-1.0294-1.8342s-1.0463-.9571-1.6927-1.2485c-.6463-.2915-1.3473-.4421-2.0563-.442h-3.67c-.7091-.0001-1.4101.1505-2.0564.442-.6464.2914-1.2234.717-1.6927 1.2485s-.8202 1.1568-1.0294 1.8342c-.2092.6775-.272 1.3917-.184 2.0953l1.25 10c.1511 1.2095.7388 2.3221 1.6527 3.1287.9138.8066 2.0909 1.2516 3.3098 1.2513z"/><path d="m23.5 20.9998c2.7614 0 5-2.2386 5-5s-2.2386-5-5-5-5 2.2386-5 5 2.2386 5 5 5z"/></g></svg>