<svg fill="none" height="18" viewBox="0 0 17 18" width="17" xmlns="http://www.w3.org/2000/svg"><path d="m13.9854 10.4541c0 .8229.004 1.5861 0 2.3492-.004.809-.2909 1.2194-1.0581 1.4884-.5937.2092-1.1915.4025-1.7893.5998-.8547.2809-1.1337.6655-1.1357 1.5761v.7671c-2.22365 0-4.40348 0-6.65504 0 0-.7093-.02988-1.4027.00598-2.0902.05778-1.07-.33873-1.8809-1.09987-2.6441-2.155919-2.1579-2.797513-4.77405-1.783316-7.63532.998256-2.82142 3.116316-4.459279 6.093146-4.8119568 3.42715-.4064752 6.2964 1.5462068 7.0655 4.9474468.3108 1.37285.9285 2.41893 1.8132 3.41719.8528.96438.7532 1.27123-.4523 1.68764-.3288.1136-.6535.2272-1.0042.3487zm-7.82469-4.45926c.06376-.17733.10361-.33873.17933-.48418.25305-.49216.68742-.63761 1.20747-.60175.46625.03188.83686.2152.98431.69141.15741.5061-.02789.91258-.4264 1.22541-.20722.16338-.43636.30087-.65554.44632-.70137.46825-.91656 1.12777-.77509 1.96663h1.2533c-.14546-.83487.38854-1.23936 1.00224-1.59403.12752-.07372.24906-.16538.36064-.26301 1.14973-1.00025.91063-2.73375-.4782-3.36339-.87472-.39651-1.77136-.39252-2.65006.002-.79303.35666-1.24733 1.1178-1.18954 1.94869.09564.00797.19327.02391.29091.02391.29688.00398.59377.00199.89663.00199zm1.18356 4.82196c-.54595 0-.92851.3746-.91457.8966.01395.5021.38655.8508.91258.8528.55193.002.91656-.3606.90461-.8986-.01395-.5221-.36463-.8508-.90262-.8508z" fill="#5a57c6"/></svg>