<svg fill="none" height="40" viewBox="0 0 40 40" width="40" xmlns="http://www.w3.org/2000/svg" xmlns:xlink="http://www.w3.org/1999/xlink"><clipPath id="a"><path d="m0 0h40v40h-40z"/></clipPath><g clip-path="url(#a)"><path d="m37.4102 16.0547c-.2617-3.9336-1.0937-7.78515-2.4883-11.49609-.0727-.19549-.1935-.36952-.3512-.50606-.1577-.13653-.3472-.23117-.5511-.27519-.4141-.08984-.8438.03516-1.1446.33203-2.2968 2.26563-4.9062 4.07422-7.7656 5.37891-1.6367.7461-3.5 1.3672-5.3828 1.793-.3242.0742-.6484.1406-.9726.2031v-.0039c0-.4727-.3829-.8555-.8555-.8555h-9.69923c-4.48438 0-8.2148461 3.668-8.19922109 8.1524.0078125 2.2226.91796909 4.2461 2.38672109 5.7109.8789.8789 1.95703 1.5586 3.15625 1.9648.63672.2149 1.07422.8008 1.10547 1.4766.02734.6484.125 1.293.28906 1.9219.55078 2.1172 1.72656 3.6015 2.76172 4.5586.55863.5156 1.44923.414 1.87893-.2149l.7148-1.0468c.3399-.5.2813-1.1758-.1523-1.5977-.586-.5703-1.2578-1.4453-1.5703-2.6445 0-.0078-.0039-.0157-.0079-.0235-.2617-1.0156.5157-2.0039 1.5665-2.0039h5.7695c.4726 0 .8555-.3828.8555-.8554.3281.0625.6523.1289.9765.1992 1.8672.4179 3.7266 1.039 5.3789 1.7929 2.8555 1.3047 5.4688 3.1133 7.7656 5.379.2344.2343.5508.3593.879.3593.0898 0 .1796-.0078.2695-.0312.414-.0899.7539-.3828.9023-.7813 1.3946-3.707 2.2305-7.5625 2.4922-11.4922.7735-.3437 1.3399-1.4218 1.3399-2.6953 0-1.2734-.5743-2.3554-1.3477-2.6992z" fill="#5a57c6"/><path d="m26.1445 25.7383c2.5469 1.1601 4.9102 2.6836 7.0547 4.5469 1.1953-3.7305 1.8008-7.6016 1.8008-11.5352s-.6055-7.8047-1.8008-11.53516c-2.1445 1.85938-4.5078 3.38676-7.0547 4.54686-1.7148.7617-5.5945 2.2805-7.3945 2.2617v9.4571c1.8464.4435 5.9102 1.5161 7.3945 2.2578z" fill="#edecff"/></g></svg>