<svg fill="none" height="40" viewBox="0 0 40 40" width="40" xmlns="http://www.w3.org/2000/svg"><path d="m31.3176 12.25c-.3315 0-.6494.1317-.8839.3661-.2344.2344-.3661.5524-.3661.8839v3.57c0 5.05-4.5175 9.1575-10.0675 9.1575s-10.06748-4.11-10.06748-9.1575v-3.71c0-.3315-.1317-.6495-.36612-.8839s-.55236-.3661-.88388-.3661-.64947.1317-.88389.3661-.36611.5524-.36611.8839v3.71c0 6.1675 5.20498 11.18 11.74498 11.58v4.355h-5.2075c-.63 0-1.14.56-1.14 1.2525 0 .69.51 1.2475 1.14 1.2475h12.4625c.6275 0 1.14-.5575 1.14-1.2475 0-.6925-.5125-1.2525-1.14-1.2525h-4.755v-4.4325c6.1325-.7725 10.89-5.605 10.89-11.5025v-3.57c0-.6925-.5575-1.25-1.25-1.25z" fill="#5a57c6"/><path d="m15.4181 3.7151c1.2683-1.26867 2.9879-1.98255 4.7818-1.98512 1.7946.0014 3.5153.71478 4.7846 1.98358 1.2694 1.26902 1.9833 2.98993 1.9851 4.78488v8.24276.0007c-.0025 1.7946-.7167 3.515-1.9859 4.7838-1.269 1.2686-2.9894 1.9822-4.7838 1.9843-1.7939-.0026-3.5135-.7165-4.7818-1.9851-1.2683-1.2688-1.9817-2.9889-1.9835-4.7829v-8.24403c.0018-1.79403.7152-3.51409 1.9835-4.78287z" fill="#edecff" stroke="#5a57c6" stroke-width="2"/><path d="m13 12h14v1.9181c-.0026 2.4084-.7414 4.717-2.0543 6.4196s-3.0927 2.66-4.949 2.6623c-3.8572 0-6.9967-4.0733-6.9967-9.0819z" fill="#5a57c6"/></svg>