<svg fill="none" height="54" viewBox="0 0 54 54" width="54" xmlns="http://www.w3.org/2000/svg"><path d="m34.7856 20.4802c.5063 0 1.0055.0362 1.5.0887-1.3471-6.0631-8.0555-10.5689-15.7121-10.5689-8.5607 0-15.5735 5.6396-15.5735 12.8002 0 4.1326 2.33363 7.5268 6.2318 10.1594l-1.55735 4.5287 5.44355-2.6391c1.9491.3721 3.5112.7558 5.4555.7558.4885 0 .9721-.0232 1.4535-.0605-.3046-1.0055-.4814-2.0599-.4814-3.1529.0001-6.575 5.8425-11.9114 13.24-11.9114zm-8.372-4.0813c1.1728 0 1.949.7465 1.949 1.8791 0 1.1279-.7762 1.8838-1.949 1.8838-1.1681 0-2.3384-.7559-2.3384-1.8838 0-1.1326 1.1704-1.8791 2.3384-1.8791zm-10.8991 3.7628c-1.168 0-2.3456-.7558-2.3456-1.8837 0-1.1326 1.1776-1.8791 2.3456-1.8791 1.1668 0 1.9443.7465 1.9443 1.8791 0 1.1279-.7775 1.8837-1.9443 1.8837zm33.4855 12.0491c0-6.0175-6.2306-10.9223-13.2279-10.9223-7.4095 0-13.2447 4.9048-13.2447 10.9223 0 6.0263 5.8352 10.9205 13.2447 10.9205 1.5501 0 3.1147-.3756 4.6719-.7535l4.2721 2.2605-1.1716-3.7605c3.1267-2.2675 5.4555-5.2728 5.4555-8.667zm-17.5227-1.8838c-.775 0-1.5573-.7453-1.5573-1.5058 0-.75.7823-1.5047 1.5573-1.5047 1.1776 0 1.9491.7547 1.9491 1.5047 0 .7605-.7715 1.5058-1.9491 1.5058zm8.5655 0c-.7691 0-1.5466-.7453-1.5466-1.5058 0-.75.7775-1.5047 1.5466-1.5047 1.168 0 1.9491.7547 1.9491 1.5047 0 .7605-.7811 1.5058-1.9491 1.5058z" fill="#000"/></svg>