<svg fill="none" height="54" viewBox="0 0 54 54" width="54" xmlns="http://www.w3.org/2000/svg"><path d="m44.0554 24.7245-3.3884-3.389v-4.791c0-.8531-.3389-1.6712-.942-2.2744s-1.4211-.9421-2.274-.9421h-4.7903l-3.3884-3.38892c-1.2519-1.25211-3.2909-1.25211-4.5503 0l-3.3884 3.38892h-4.7903c-.4223 0-.8405.0832-1.2307.2449-.3902.1616-.7447.3985-1.0433.6972-.2987.2987-.5355.6533-.6972 1.0435-.1616.3903-.2448.8085-.2448 1.2309v4.791l-3.38837 3.389c-1.25191 1.2521-1.25191 3.2914 0 4.551l3.38837 3.389v4.791c0 .4224.0832.8406.2448 1.2309.1617.3902.3985.7448.6972 1.0435.2986.2987.6531.5356 1.0433.6972.3902.1617.8084.2449 1.2307.2449h4.7903l3.3884 3.3889c1.2519 1.2521 3.2909 1.2521 4.5503 0l3.3884-3.3889h4.7903c.4223 0 .8405-.0832 1.2307-.2449.3902-.1616.7447-.3985 1.0433-.6972.2987-.2987.5355-.6533.6972-1.0435.1616-.3903.2448-.8085.2448-1.2309v-4.791l3.3884-3.389c.2994-.2984.537-.6531.6991-1.0436.1621-.3904.2455-.8091.2455-1.2319s-.0834-.8415-.2455-1.2319c-.1621-.3905-.3997-.7452-.6991-1.0436zm-8.7784-.9223-10.4426 8.8398c-.2923.2474-.6597.3824-1.042.3824-.045 0-.0899 0-.1424-.0075-.4273-.0375-.8246-.24-1.0945-.5699l-4.0181-4.8209c-.5697-.6823-.4798-1.6945.2024-2.2643.6822-.5699 1.6942-.4724 2.2639.2024l2.9836 3.5764 9.2132-7.7976c.6822-.5698 1.6942-.4873 2.2639.1875.5772.6822.4948 1.7019-.1874 2.2717z" fill="#000"/></svg>